<svg width="32" height="32" viewBox="0 0 32 32" fill="none" xmlns="http://www.w3.org/2000/svg">
<path fill-rule="evenodd" clip-rule="evenodd" d="M25.1535 10.7691C25.1519 10.7691 25.1505 10.7683 25.1497 10.7669C23.893 8.58901 24.2712 5.92448 25.887 4.16948C25.9716 4.07996 25.9219 3.93076 25.8025 3.91584C24.1016 3.70198 22.3112 4.1098 20.7794 5.22382C18.1535 7.13856 17.1887 10.7094 18.4967 13.6884C20.2125 17.5925 24.8675 19.0447 28.4533 16.9758C29.8309 16.1801 30.8355 14.9914 31.4124 13.6288C31.4622 13.5144 31.3577 13.4 31.2384 13.4298C28.9066 13.9568 26.4109 12.9481 25.1572 10.7713C25.1564 10.7699 25.155 10.7691 25.1535 10.7691V10.7691Z" fill="url(#paint0_linear_285_28473)"/>
<path fill-rule="evenodd" clip-rule="evenodd" d="M22.9588 13.7827C22.5688 13.7827 22.1865 13.821 21.8194 13.8975C21.0088 10.6983 18.1259 8.33331 14.6847 8.33331C10.6165 8.33331 7.32059 11.632 7.32059 15.7038C7.32059 16.2242 7.37412 16.737 7.48118 17.2345C7.42765 17.2345 7.37412 17.2269 7.32059 17.2269C4.93471 17.2269 3 19.1632 3 21.5512C3 23.9391 4.80471 25.7377 7.08353 25.8602V25.8755H22.5459V25.8525C22.6835 25.8602 22.8212 25.8755 22.9588 25.8755C26.2929 25.8755 29 23.1661 29 19.8291C29 16.4921 26.2929 13.7827 22.9588 13.7827Z" fill="url(#paint1_linear_285_28473)"/>
<defs>
<linearGradient id="paint0_linear_285_28473" x1="18.0067" y1="3.86108" x2="18.0067" y2="17.7292" gradientUnits="userSpaceOnUse">
<stop stop-color="#FFC227"/>
<stop offset="1" stop-color="#FFB300"/>
</linearGradient>
<linearGradient id="paint1_linear_285_28473" x1="3" y1="8.33331" x2="3" y2="25.8755" gradientUnits="userSpaceOnUse">
<stop stop-color="#9FC7FF"/>
<stop offset="1" stop-color="#9BC1F5"/>
</linearGradient>
</defs>
</svg>
