<svg width="32" height="32" viewBox="0 0 32 32" fill="none" xmlns="http://www.w3.org/2000/svg">
<path fill-rule="evenodd" clip-rule="evenodd" d="M13.9916 27.1882C13.628 28.1925 12.5227 28.7093 11.5192 28.3381C10.5156 27.9742 9.99935 26.8679 10.3702 25.8636C10.6102 25.194 11.9191 24.1169 12.7626 23.4691C13.1044 23.2071 13.6062 23.3891 13.7007 23.8112C13.9334 24.8519 14.2388 26.5186 13.9916 27.1882Z" fill="#66AFEB"/>
<path fill-rule="evenodd" clip-rule="evenodd" d="M20.3804 27.1882C20.0168 28.1925 18.9115 28.7093 17.9079 28.3381C16.9044 27.9742 16.3881 26.8679 16.759 25.8636C16.999 25.194 18.3079 24.1169 19.1514 23.4691C19.4932 23.2071 19.995 23.3891 20.0895 23.8112C20.3222 24.8519 20.6276 26.5186 20.3804 27.1882Z" fill="#66AFEB"/>
<path fill-rule="evenodd" clip-rule="evenodd" d="M22.4236 9.66017C22.0547 9.66017 21.6929 9.69641 21.3457 9.76888C20.5788 6.73946 17.8514 4.5 14.5959 4.5C10.7472 4.5 7.62911 7.62364 7.62911 11.4793C7.62911 11.9721 7.67975 12.4577 7.78103 12.9288C7.73039 12.9288 7.67975 12.9215 7.62911 12.9215C5.37195 12.9215 3.54163 14.7551 3.54163 17.0163C3.54163 19.2775 5.24896 20.9807 7.40484 21.0966V21.1111H22.033V21.0894C22.1632 21.0966 22.2934 21.1111 22.4236 21.1111C25.5778 21.1111 28.1389 18.5455 28.1389 15.3856C28.1389 12.2258 25.5778 9.66017 22.4236 9.66017Z" fill="url(#paint0_linear_285_28460)"/>
<defs>
<linearGradient id="paint0_linear_285_28460" x1="3.54163" y1="4.5" x2="3.54163" y2="21.1111" gradientUnits="userSpaceOnUse">
<stop stop-color="#9FC7FF"/>
<stop offset="1" stop-color="#9BC1F5"/>
</linearGradient>
</defs>
</svg>
