<svg width="32" height="32" viewBox="0 0 32 32" fill="none" xmlns="http://www.w3.org/2000/svg">
<path d="M11.7855 25.3673H11.1022L11.4472 24.772C11.684 24.3594 11.5419 23.8318 11.1293 23.595C10.7166 23.3582 10.189 23.5003 9.95224 23.9129L9.60725 24.5082L9.26225 23.9129C9.02549 23.5003 8.49786 23.3582 8.08521 23.595C7.8214 23.7506 7.65905 24.0347 7.65905 24.3391C7.65905 24.4947 7.69963 24.6367 7.77404 24.7653L8.11903 25.3606H7.42905C6.95553 25.3606 6.56995 25.7461 6.56995 26.2197C6.56995 26.6932 6.95553 27.0788 7.42905 27.0788H8.11903L7.77404 27.6741C7.69963 27.8026 7.65905 27.9514 7.65905 28.1002C7.65905 28.4046 7.8214 28.6955 8.09198 28.8443C8.22727 28.9187 8.37609 28.9593 8.51815 28.9593C8.81579 28.9593 9.10667 28.8037 9.26902 28.5264L9.61402 27.9311L9.95901 28.5264C10.1958 28.939 10.7234 29.0743 11.136 28.8443C11.5487 28.6076 11.6907 28.0799 11.454 27.6673L11.109 27.072H11.7922C12.2657 27.072 12.6513 26.6864 12.6513 26.2129C12.6513 25.7394 12.2657 25.3538 11.7922 25.3538L11.7855 25.3673Z" fill="#B4E5FB"/>
<path d="M11.7855 25.3673H11.1022L11.4472 24.772C11.684 24.3594 11.5419 23.8318 11.1293 23.595C10.7166 23.3582 10.189 23.5003 9.95224 23.9129L9.60725 24.5082L9.26225 23.9129C9.02549 23.5003 8.49786 23.3582 8.08521 23.595C7.8214 23.7506 7.65905 24.0347 7.65905 24.3391C7.65905 24.4947 7.69963 24.6367 7.77404 24.7653L8.11903 25.3606H7.42905C6.95553 25.3606 6.56995 25.7461 6.56995 26.2197C6.56995 26.6932 6.95553 27.0788 7.42905 27.0788H8.11903L7.77404 27.6741C7.69963 27.8026 7.65905 27.9514 7.65905 28.1002C7.65905 28.4046 7.8214 28.6955 8.09198 28.8443C8.22727 28.9187 8.37609 28.9593 8.51815 28.9593C8.81579 28.9593 9.10667 28.8037 9.26902 28.5264L9.61402 27.9311L9.95901 28.5264C10.1958 28.939 10.7234 29.0743 11.136 28.8443C11.5487 28.6076 11.6907 28.0799 11.454 27.6673L11.109 27.072H11.7922C12.2657 27.072 12.6513 26.6864 12.6513 26.2129C12.6513 25.7394 12.2657 25.3538 11.7922 25.3538L11.7855 25.3673Z" fill="#67C8E2"/>
<path fill-rule="evenodd" clip-rule="evenodd" d="M18.4637 27.1882C18.1001 28.1925 16.9948 28.7093 15.9913 28.3381C14.9878 27.9742 14.4715 26.8679 14.8424 25.8636C15.0823 25.194 16.3913 24.1169 17.2348 23.4691C17.5766 23.2071 18.0783 23.3891 18.1729 23.8112C18.4056 24.8519 18.711 26.5186 18.4637 27.1882Z" fill="#97D3FF"/>
<path fill-rule="evenodd" clip-rule="evenodd" d="M24.2137 27.1882C23.8501 28.1925 22.7448 28.7093 21.7413 28.3381C20.7378 27.9742 20.2215 26.8679 20.5924 25.8636C20.8323 25.194 22.1413 24.1169 22.9848 23.4691C23.3266 23.2071 23.8283 23.3891 23.9229 23.8112C24.1556 24.8519 24.461 26.5186 24.2137 27.1882Z" fill="#97D3FF"/>
<path fill-rule="evenodd" clip-rule="evenodd" d="M22.4236 9.66017C22.0547 9.66017 21.6929 9.69641 21.3457 9.76888C20.5788 6.73946 17.8514 4.5 14.5959 4.5C10.7472 4.5 7.62911 7.62364 7.62911 11.4793C7.62911 11.9721 7.67975 12.4577 7.78103 12.9288C7.73039 12.9288 7.67975 12.9215 7.62911 12.9215C5.37195 12.9215 3.54163 14.7551 3.54163 17.0163C3.54163 19.2775 5.24896 20.9807 7.40484 21.0966V21.1111H22.033V21.0894C22.1632 21.0966 22.2934 21.1111 22.4236 21.1111C25.5778 21.1111 28.1389 18.5455 28.1389 15.3856C28.1389 12.2258 25.5778 9.66017 22.4236 9.66017Z" fill="url(#paint0_linear_285_28466)"/>
<defs>
<linearGradient id="paint0_linear_285_28466" x1="3.54163" y1="4.5" x2="3.54163" y2="21.1111" gradientUnits="userSpaceOnUse">
<stop stop-color="#9FC7FF"/>
<stop offset="1" stop-color="#9BC1F5"/>
</linearGradient>
</defs>
</svg>
